<svg xmlns="http://www.w3.org/2000/svg" xmlns:xlink="http://www.w3.org/1999/xlink" viewBox="0 0 326.2 77.88"><defs><style>.cls-1{fill:#ffc350;}.cls-2{fill:#fff;}.cls-3{fill:url(#linear-gradient);}.cls-4{fill:url(#linear-gradient-2);}.cls-5{fill:url(#linear-gradient-3);}</style><linearGradient id="linear-gradient" x1="47.61" y1="25.9" x2="64.42" y2="42.32" gradientUnits="userSpaceOnUse"><stop offset="0" stop-opacity="0.3"/><stop offset="1" stop-opacity="0"/></linearGradient><linearGradient id="linear-gradient-2" x1="11.68" y1="59.87" x2="32.62" y2="60.31" xlink:href="#linear-gradient"/><linearGradient id="linear-gradient-3" x1="28.16" y1="35.08" x2="30.29" y2="40.98" xlink:href="#linear-gradient"/></defs><g id="Lag_2" data-name="Lag 2"><g id="Lag_1-2" data-name="Lag 1"><path class="cls-1" d="M103.71,62.29q-7,0-11.13-3.92T88.47,47.16V38.09c0-4.87,1.37-8.6,4.11-11.22S99,23,103.71,23s8.24,1.27,10.77,3.81,3.81,6,3.81,10.45v.33h-7V37a8.18,8.18,0,0,0-1.86-5.52q-1.87-2.16-5.7-2.16a7.72,7.72,0,0,0-5.95,2.33A8.91,8.91,0,0,0,95.6,38v9.29a9,9,0,0,0,2.16,6.3,7.7,7.7,0,0,0,5.95,2.35q3.83,0,5.7-2.19a8.19,8.19,0,0,0,1.86-5.49v-1h7V48q0,6.64-3.81,10.45C112,61,108.35,62.29,103.71,62.29Z"/><path class="cls-1" d="M123.81,61.54V34.74h6.69v3h1a4.27,4.27,0,0,1,2-2.38,6.62,6.62,0,0,1,3.21-.75h3.25v6h-3.35a6.48,6.48,0,0,0-4.27,1.38,5.16,5.16,0,0,0-1.68,4.24V61.54Z"/><path class="cls-1" d="M147.58,72.34V66.4h14.59c1,0,1.51-.54,1.51-1.62V58h-1a6.6,6.6,0,0,1-1.35,1.84,7,7,0,0,1-2.49,1.51,11.31,11.31,0,0,1-4,.6,10.34,10.34,0,0,1-5.48-1.43,9.76,9.76,0,0,1-3.65-4,12.67,12.67,0,0,1-1.3-5.83v-16h6.81V50.19a6.24,6.24,0,0,0,1.49,4.54A5.66,5.66,0,0,0,157,56.24a6,6,0,0,0,4.86-2.08,8.85,8.85,0,0,0,1.73-5.81V34.74h6.81V66.29a6,6,0,0,1-1.62,4.4,5.78,5.78,0,0,1-4.32,1.65Z"/><path class="cls-1" d="M177.4,72.34V34.74h6.7V38h1a8.34,8.34,0,0,1,2.87-2.78A10.45,10.45,0,0,1,193.5,34a11.57,11.57,0,0,1,10.43,6.27,15.36,15.36,0,0,1,1.68,7.45v.87A15.33,15.33,0,0,1,203.93,56a11.66,11.66,0,0,1-4.43,4.68,11.81,11.81,0,0,1-6,1.59,12.62,12.62,0,0,1-4.08-.57,7.6,7.6,0,0,1-2.64-1.45,9.32,9.32,0,0,1-1.6-1.81h-1V72.34Zm14-16a7.25,7.25,0,0,0,5.27-2,7.91,7.91,0,0,0,2.08-5.91v-.54A7.81,7.81,0,0,0,196.69,42a7.78,7.78,0,0,0-10.48,0,7.81,7.81,0,0,0-2.11,5.92v.54a7.8,7.8,0,0,0,2.11,5.91A7.26,7.26,0,0,0,191.45,56.35Z"/><path class="cls-1" d="M220.73,61.54a5.8,5.8,0,0,1-4.29-1.65,6,6,0,0,1-1.65-4.41V40.36h-6.7V34.74h6.7V26.42h6.81v8.32H229v5.62H221.6V54.29c0,1.09.5,1.63,1.51,1.63h5.19v5.62Z"/><path class="cls-1" d="M246.35,62.29a15.62,15.62,0,0,1-7.19-1.62,12.19,12.19,0,0,1-5-4.7,14.22,14.22,0,0,1-1.83-7.4V47.7a14.22,14.22,0,0,1,1.83-7.4,12.19,12.19,0,0,1,5-4.7,16.74,16.74,0,0,1,14.37,0,12.19,12.19,0,0,1,5,4.7,14.22,14.22,0,0,1,1.83,7.4v.87a14.22,14.22,0,0,1-1.83,7.4,12.19,12.19,0,0,1-5,4.7A15.61,15.61,0,0,1,246.35,62.29Zm0-6a7.09,7.09,0,0,0,5.18-2,7.78,7.78,0,0,0,2.06-5.8v-.54a7.85,7.85,0,0,0-2-5.81,7.68,7.68,0,0,0-10.4,0,7.78,7.78,0,0,0-2,5.81v.54a7.77,7.77,0,0,0,2,5.8A7.09,7.09,0,0,0,246.35,56.24Z"/><path class="cls-2" d="M265.9,61.54V23.71h15.56a13.31,13.31,0,0,1,6.3,1.44,10.54,10.54,0,0,1,4.27,4,11.91,11.91,0,0,1,1.54,6.16v.76a11.51,11.51,0,0,1-1.6,6.13,10.8,10.8,0,0,1-4.32,4.05,13.05,13.05,0,0,1-6.19,1.43H273V61.54ZM273,41.22h7.72a5.93,5.93,0,0,0,4.11-1.41A4.89,4.89,0,0,0,286.44,36v-.54a4.92,4.92,0,0,0-1.57-3.84,6,6,0,0,0-4.11-1.4H273Z"/><path class="cls-2" d="M298,61.54V23.71h16.42A14.5,14.5,0,0,1,320.64,25a9.31,9.31,0,0,1,5.56,8.86v.65A8.8,8.8,0,0,1,324.58,40a9.55,9.55,0,0,1-4,3.08v1a4.49,4.49,0,0,1,3.35,1.49,5.37,5.37,0,0,1,1.19,3.64V61.54H318V50.19a3.18,3.18,0,0,0-.68-2.11,2.76,2.76,0,0,0-2.24-.81h-9.94V61.54Zm7.13-20.75h8.54a5.5,5.5,0,0,0,4-1.38,4.84,4.84,0,0,0,1.43-3.65v-.54a4.84,4.84,0,0,0-1.41-3.64,5.45,5.45,0,0,0-4-1.38h-8.54Z"/><path class="cls-3" d="M71.2,33.48s-1,1-2.57,2.33C64.56,39.41,57,46,56.61,46.56S52.37,45,49.1,44.43a6.85,6.85,0,0,0-2.42,0h0c-.54-1.13-1,3.35-1.67,4.59-1.62,3.79-11.26,4.79-10.72,5.66h0a12.08,12.08,0,0,0-2.84,1.64c-.33.22-.55.36-.6.32s3.53-7.9,3.62-8.08l.87-1.62h0l2.2-4.05s-4.34-3.35-.19-.74h0l.08.06h0c4,2.63.5,8.26.5,8.26a6.75,6.75,0,0,0,4.17-2.52c1.39-2.08-.87-8.51-.87-8.51A60.46,60.46,0,0,0,57.66,27.2c.41-.41.81-.83,1.21-1.24a6,6,0,0,0,5-5.7L64.9,18.9A110.29,110.29,0,0,0,74.19,4.8s1,7.46-5,16.47c-4,6.07-12.45,12.6-21.65,19-1.66,1.15-1.35,2.24-.34,1.45h0C47,42.17,70,27.27,69.81,27.63S71.2,33.3,71.2,33.48Z"/><path class="cls-1" d="M77.29.55c-2-2.14-17.62,2.58-16.27,4C68.21,1.86,75,1.93,75.46,2.4S76,8,74.25,14l-.24.77c-.08.26-.17.52-.26.79s-.18.52-.28.79h0l-.3.79-.33.8c-.23.53-.47,1.06-.73,1.6-.13.26-.26.53-.4.79l-.43.8c-.15.26-.3.52-.46.78l-.24.39c-.18.3-.37.59-.57.88l-.19.28c-.27.39-.54.77-.83,1.14s-.52.65-.79,1-.45.52-.69.78-.48.52-.74.77a97.91,97.91,0,0,1-13,10.15l-.64.43-.31.22-.92.61-.3.2-.57.38-.55.36-.53.34-.22.14-.43.28-.2.13a2.9,2.9,0,0,0-.29.19l-.28.17-.18.12-.2.12-.14.09-.1.06-.28.18a3.15,3.15,0,0,0-.27.19l-.09.07-.12.11h0l-.07.07c-.06.07-.12.13-.17.2a2.14,2.14,0,0,0-.13.19,1.55,1.55,0,0,0-.17.41,1.17,1.17,0,0,0,0,.32V43c0,.38.06.86.07,1.39h0v.93c0,.1,0,.2,0,.3s0,.2,0,.31h0a2.11,2.11,0,0,0,0,.25l0,.3c0,.05,0,.09,0,.14s0,.13,0,.2c0,.26-.08.52-.13.77a.44.44,0,0,1,0,.1,5.78,5.78,0,0,1-.17.69c0,.05,0,.11,0,.17s-.08.22-.11.33A1.11,1.11,0,0,1,46,49c-.05.14-.11.28-.17.42s-.12.24-.19.36a5.39,5.39,0,0,1-.33.5h0l-.24.3-.14.14-.14.13a6.68,6.68,0,0,1-1.07.75,7,7,0,0,1-.61.34l-.37.18-.61.28-.47.2-.4.16-.34.13-.38.14-.3.11h0l-.62.21c-.64.2-1.27.39-1.89.55l-.41.11a23.36,23.36,0,0,1-3.05.58h0l-.28,0c-.74.06-1.24,0-1.35-.19s0-.3.23-.56l0-.07.19-.22.14-.15.14-.16a19,19,0,0,0,4.06-6.9,4.18,4.18,0,0,0,.07-.51s0-.47,0-.5a10,10,0,0,0-.07-1.66l-.12-.57-.21-.38c-.2-.29-.39-.9-.75-1.05-1.21-.52-1-.72-2.13-.83l-1.43-.5c-1,.25-5.76,2.14-7.59,3.89l-.26.2c-.28.27-.61.14-.82.32a1.71,1.71,0,0,1-.69.42h0l-.09,0C22.5,44.68,24.61,35.71,27,33a4.39,4.39,0,0,1,1.28-1h0c2.06-1.05,5.1-1,6.61-.84a1.9,1.9,0,0,0,1.65-1.05c2.17-3.44,8.83-13.75,14.18-19.1A24.88,24.88,0,0,1,53.08,9a36.59,36.59,0,0,0-25.9-2.84h0l-.14,0-.64.17-.28.08-.38.12-.38.12c-.71.22-1.42.47-2.11.73l-.42.17c-.41.16-.82.33-1.23.52l-1,.44-.14.07c-.35.17-.7.34-1,.53s-.71.37-1.05.57l-.53.3h0l-.5.3-.52.33c-.34.21-.68.43-1,.66l-.47.33,0,0-.48.34h0l-.46.35,0,0-.42.33-.05,0-.46.38-.56.46-.3.26L12.4,14l-.38.33-.09.09-.39.36a.46.46,0,0,0-.07.07c-.12.1-.23.21-.34.32s-.35.34-.52.51A36.24,36.24,0,0,0,1.75,30l-.24.77-.12.38c-.22.78-.42,1.56-.6,2.35,0,.13-.06.26-.08.39s-.11.53-.16.79-.05.26-.07.39c-.12.66-.22,1.33-.3,2S.8,38.2.75,38.86a5,5,0,0,1,2.63,1.48l.13.14.23.24.13.16c.17.21.34.42.49.64l.21.33c0,.06.07.12.11.17l.3.55c.08.15.15.31.22.47s.18.42.26.63l.06.16c.07.21.14.42.2.63l.09.31c.08.31.15.62.21.91s.05.29.07.43,0,.19,0,.28l0,.27s0,.09,0,.13a2.28,2.28,0,0,1,0,.26c.12,1.19.44.71.78.15a6.92,6.92,0,0,1,1.1-1.28l.27-.27h0l.28-.24h0a5,5,0,0,1,.46-.34h0l.33-.21L10,44.6l.37-.14h0l.38-.11A5.32,5.32,0,0,1,13,44.29c1.2.22,2.24-.19,2.89.45l.11.1c.16.18.31.36.45.55l.15.23a3.35,3.35,0,0,1,.21.36c.05.08.09.16.13.24h0c0,.09.07.17.11.25l.15.38.07.22a.64.64,0,0,0,0,.07l.06.18s0,0,0,.07a9.15,9.15,0,0,1,.22,1.09v0c0,.12,0,.23,0,.34v0l0,.32c0,.11,0,.21,0,.31,0,.3,0,.57,0,.81a.67.67,0,0,0,0,.29.24.24,0,0,0,0,.08c.13.38.34,2,.62,1.88,3.91-1.87,14.5-9.56,14.67-9.68h0l.18-.14.15-.08.06,0a2.38,2.38,0,0,1,.32-.12l.09,0h.07l.17,0h.23l.24.06h0a1.13,1.13,0,0,1,.37.23l.05,0c.86.86-.05,1.93-.05,1.93s-7.81,10.72-9.69,14.65a.44.44,0,0,0-.05.29v.06a.71.71,0,0,0,.79.48,11.1,11.1,0,0,1,2.48.22,5.23,5.23,0,0,1,4.45,4.31c0,.18,0,.35.07.51a1,1,0,0,1,0,.17.57.57,0,0,1,0,.13,3.69,3.69,0,0,1,0,.47,1.48,1.48,0,0,1,0,.21,6,6,0,0,1-3.14,4.55c-.29.18-.56.35-.59.49v0c0,.11.22.2.74.25,2.67.26,7.73.67,9.25,5.5.44,0,.16,0,.6,0a25.49,25.49,0,0,0,3.13-.5l.64-.21c.08,0,.33,0,.42,0s.63-.25.63-.24a37.12,37.12,0,0,1,3.53-1.69s2.27-1.69,1,.15l.65-.27a21.44,21.44,0,0,0,7.25-3.68c.1-.07.45-.53.55-.6s.47-.48.57-.55.86-.33,3.53-3.13l1.33-.47L66.48,61s.49-.54.51-.51a4.87,4.87,0,0,0,.64-1.18l-.09-.3.45-.24.36-.42s-.28,0-.28,0-.09-.24-.08-.24c1.5-2.72,3-4.59,3.75-7.53,0-.2.09-.4.14-.59.09-.38.18-.76.25-1.14s.15-.74.22-1.12c0-.21.07-.42.1-.64s.1-.62.14-.94c0-.1,0-.21,0-.31s0-.26,0-.39l.06-.56c0-.33,0-.65.08-1,0-.09,0-.19,0-.29s0-.36,0-.55l0-.81h0q0-.9,0-1.8c0-.35,0-.69,0-1h0c0-.23,0-.45,0-.68l-.06-.7c0-.14,0-.28,0-.41,0-.28-.06-.55-.1-.83s0-.28,0-.41,0-.23-.05-.34c0-.3-.09-.6-.15-.9s-.1-.59-.16-.89-.13-.59-.19-.89c-.14-.59-.29-1.17-.45-1.76A37.27,37.27,0,0,0,70,27.27l.1-.13.06-.07,0-.06c.2-.24.4-.48.59-.73l0,0,0-.07,0,0,0,0s0,0,0-.06l0,0,0-.05,0-.05c.23-.3.45-.6.66-.91a.1.1,0,0,0,0-.05l0,0,0-.06,0,0,0-.05,0,0,.22-.33.22-.33.21-.33c.15-.22.28-.44.42-.66l.19-.33.2-.33c.19-.33.38-.67.55-1s.35-.66.52-1a3.54,3.54,0,0,1,.16-.34c0-.11.1-.22.16-.33l.3-.66.29-.66c0-.12.09-.23.13-.33l.17-.42c.11-.27.21-.54.31-.81l.15-.41c0-.17.11-.33.16-.49s.17-.48.24-.72.15-.48.22-.72l.09-.32.09-.32c0-.1,0-.2.08-.31.1-.39.2-.78.28-1.16l.09-.38.06-.3.12-.6.06-.29c0-.1,0-.2,0-.3.08-.48.15-1,.21-1.42a2.7,2.7,0,0,1,0-.28l0-.27,0-.35c0-.15,0-.3,0-.45s0-.35,0-.52c0-.44,0-.87.06-1.28V5.82C78.2,3,77.8,1.08,77.29.55Z"/><path class="cls-4" d="M36.34,77.88a83.22,83.22,0,0,1-14.58-1.23c.86-5.82-3.56-7.22-5.39-7.55-.47-.08-.41-.47-.23-.63a6,6,0,0,1,5.6-1.32.42.42,0,0,0,.53-.49C21.45,63,17.71,62.57,16,62.55c-.51,0-.2-.61-.2-.61L35,42.83l1.61,1L29.84,60.11c-1.33,0-1.75.43-1.06.74,4.23,1.87,4,7.16-.65,9.85-.8.69.17,1.25.53,1.29C35.86,72.91,36.61,77.88,36.34,77.88Z"/><path class="cls-2" d="M64.9,18.9a7.18,7.18,0,1,0-7.24,8.3h.15A7.18,7.18,0,0,0,65,20,7.08,7.08,0,0,0,64.9,18.9Zm-6,7.06a6.23,6.23,0,0,1-1.06.09,6,6,0,1,1,6-6v.23A6,6,0,0,1,58.87,26Z"/><path class="cls-1" d="M62.05,20.88a4.92,4.92,0,0,1-.45,2.06,5,5,0,0,1-1.9,2.13,4.92,4.92,0,1,1,2.35-4.19Z"/><path class="cls-2" d="M77.29.55c-2-2.14-17.62,2.58-16.27,4C68.21,1.86,75,1.93,75.46,2.4S76,8,74.25,14l-.24.77c-.08.26-.17.52-.26.79s-.18.52-.28.79h0l-.3.79-.33.8c-.23.53-.47,1.06-.73,1.6-.13.26-.26.53-.4.79l-.43.8c-.15.26-.3.52-.46.78l-.24.39c-.18.3-.37.59-.57.88l-.19.28c-.27.39-.54.77-.83,1.14s-.52.65-.79,1-.45.52-.69.78-.48.52-.73.77h0a97.91,97.91,0,0,1-13,10.15l-.64.43-.31.22-.92.61-.3.2-.57.38-.55.36-.53.34-.22.14-.43.28-.2.13a2.9,2.9,0,0,0-.29.19l-.28.17-.18.12-.2.12-.14.09-.1.06-.28.18-.27.19-.09.07-.12.11h0l-.07.07c-.06.07-.12.13-.17.2a2.14,2.14,0,0,0-.13.19,1.55,1.55,0,0,0-.17.41,1.17,1.17,0,0,0,0,.32v0a.09.09,0,0,0,0,0c0,.38.06.86.06,1.4a2.41,2.41,0,0,1,0,.38v.55c0,.1,0,.2,0,.3s0,.21,0,.31h0a2.11,2.11,0,0,0,0,.25l0,.3c0,.05,0,.09,0,.14s0,.13,0,.2c0,.26-.08.52-.13.77a.44.44,0,0,1,0,.1,5.78,5.78,0,0,1-.17.69c0,.05,0,.11,0,.17s-.08.22-.11.33A1.11,1.11,0,0,1,46,49c-.05.14-.11.28-.17.42s-.12.24-.19.36a5.39,5.39,0,0,1-.33.5h0c-.07.1-.16.2-.24.3l-.14.14-.14.13a6.68,6.68,0,0,1-1.07.75,7,7,0,0,1-.61.34l-.37.18-.61.28-.47.2-.4.16-.34.13-.38.14-.3.11h0l-.62.21c-.64.2-1.27.39-1.89.55l-.41.11a23.36,23.36,0,0,1-3.05.58h0l-.28,0c-.74.06-1.24,0-1.35-.19s0-.3.23-.56l0-.07.19-.22.14-.15.14-.16c1.53-1.66,4.83-4.75,5-8.07a.91.91,0,0,0,0-.17V45a5.05,5.05,0,0,0-1.73-3.73,5.51,5.51,0,0,0-3.36-1.76h-.05c-3.6-.26-7,3.43-8.68,5l0,0-.15.14-.05,0c-.39.35-.67.55-.83.52h0l0,0C22.54,44.69,24.63,35.71,27,33a4.26,4.26,0,0,1,1.28-1h0c-.19,0-3.08.64-4.76,5.28a45.06,45.06,0,0,0-2,10.1c-.09,1-1.34.94-1.17-.6a7.19,7.19,0,0,0-1.73-6c-3.05-3.29-7.3-1.53-8.59-.8-.27.16-.49-.32-.53-.59a9.51,9.51,0,0,0-3.08-6C7.57,19.9,19.51,9.09,27.18,6.13h0l-.14,0-.92.25-.38.12-.38.12c-.71.22-1.42.47-2.11.73l-.42.17c-.41.16-.82.34-1.23.52l-1,.44-.14.07-1,.53c-.35.18-.71.37-1.05.57l-.53.3h0l-.5.3-.52.33c-.34.21-.68.43-1,.66l-.47.33,0,0-.48.34h0l-.46.35,0,0-.42.33-.05,0-.46.38-.56.46-.3.26L12.4,14l-.38.33-.09.09-.39.36a.46.46,0,0,0-.07.07c-.12.1-.23.21-.34.32s-.35.34-.52.51A36.24,36.24,0,0,0,1.75,30l-.24.77-.12.38c-.22.78-.42,1.56-.6,2.35,0,.13-.06.26-.08.39s-.11.53-.16.79-.05.26-.07.39c-.12.66-.22,1.33-.3,2S0,38.4,0,39.07a8.13,8.13,0,0,1,3.38,2l.13.13a2.73,2.73,0,0,1,.23.25l.13.15c.17.21.34.42.49.64l.21.34.11.16.3.55c.08.16.15.31.22.47s.18.43.26.64l.06.15c.07.22.14.43.2.63l.09.32c.08.3.15.61.21.9s.05.29.07.43,0,.19,0,.28l0,.27c0,.05,0,.09,0,.14a2.11,2.11,0,0,1,0,.25c.12,1.2.44.71.78.15a8.15,8.15,0,0,1,1.1-1.43,3.31,3.31,0,0,1,.27-.26h0L8.64,46h0l.46-.34h0a3.62,3.62,0,0,1,.33-.2,3.16,3.16,0,0,1,.52-.26c.12-.06.24-.1.37-.15h0L10.7,45A5.32,5.32,0,0,1,13,44.89a5,5,0,0,1,2.74,1.36l.11.1a5.85,5.85,0,0,1,.45.54l.15.24a2.5,2.5,0,0,1,.21.35,1.42,1.42,0,0,1,.12.25h0c0,.08.07.16.11.25l.15.38.07.22s0,.05,0,.07a1.21,1.21,0,0,1,0,.18.19.19,0,0,1,0,.07A9,9,0,0,1,17.46,50v0c0,.11,0,.22,0,.33v0l0,.32c0,.1,0,.2,0,.3,0,.3,0,.58,0,.82a.9.9,0,0,0,0,.29l0,.07a.55.55,0,0,0,.77.38c3.91-1.87,14.5-9.56,14.67-9.68h0l.18-.14.15-.08.06,0a2.38,2.38,0,0,1,.32-.12l.09,0h.07l.17,0h.23l.24.06h0a1.6,1.6,0,0,1,.37.23l.05,0c.86.86-.05,1.93-.05,1.93s-7.81,10.72-9.69,14.65a.44.44,0,0,0-.05.29v.06c.07.25.33.46.79.45.06,0,.12,0,.19,0h0a13.75,13.75,0,0,1,1.57.12l.74.13a5.27,5.27,0,0,1,4.43,4.33c0,.18,0,.35.07.52a1,1,0,0,1,0,.17.57.57,0,0,1,0,.13,3.69,3.69,0,0,1,0,.47c0,.07,0,.14,0,.21a6,6,0,0,1-3.14,4.55c-.29.17-.57.34-.59.49v0c0,.11.23.2.74.25,2.67.26,7.28,1.41,8.8,6.23l1.27-.09a19.92,19.92,0,0,0,3.77-.58h0l.26-.07h0a42.91,42.91,0,0,0,4.18-1.19l.35-.14a32.17,32.17,0,0,0,8.87-4.6l.31-.22.28-.21A51,51,0,0,0,63.28,66,34.59,34.59,0,0,0,67,61.46a20.9,20.9,0,0,0,1.34-2.31h0v-.07a51,51,0,0,0,3.39-8.51c.05-.2.09-.4.14-.59.09-.38.18-.76.25-1.14s.15-.74.22-1.12c0-.21.07-.42.1-.64s.1-.62.14-.94c0-.1,0-.21,0-.31s0-.26,0-.39l.06-.56c0-.33,0-.65.08-1,0-.09,0-.19,0-.29s0-.36,0-.55l0-.81h0q0-.9,0-1.8c0-.35,0-.69,0-1h0c0-.23,0-.45,0-.68l-.06-.7c0-.14,0-.28,0-.41,0-.28-.06-.55-.1-.83s0-.28,0-.41,0-.23-.05-.34c0-.3-.09-.6-.15-.9s-.1-.59-.16-.89-.13-.59-.19-.89c-.14-.59-.28-1.17-.45-1.76A37.27,37.27,0,0,0,70,27.27l.1-.13.06-.07,0-.06.59-.73,0,0,0-.07,0,0,0,0s0,0,0-.06l0,0,0-.05,0-.05.66-.91a.1.1,0,0,0,0-.05l0,0,0-.06,0,0,0-.05,0,0,.22-.33.22-.33.21-.33L73,23.1l.19-.33.2-.33c.19-.33.37-.67.55-1s.35-.66.52-1a3.54,3.54,0,0,1,.16-.34c0-.11.1-.22.16-.33l.3-.66.29-.66c0-.12.09-.23.13-.33l.17-.42c.11-.27.21-.54.31-.81l.15-.41c0-.17.11-.33.16-.49s.17-.48.24-.72.15-.48.22-.72l.09-.32.09-.32c0-.1,0-.2.08-.31.1-.39.2-.78.28-1.16l.09-.38.06-.3.12-.6.06-.29c0-.1,0-.2,0-.3.08-.48.15-1,.21-1.42a2.7,2.7,0,0,1,0-.28l0-.27,0-.35c0-.15,0-.3,0-.45s0-.35,0-.52c0-.44,0-.87.06-1.28V5.82C78.2,3,77.8,1.08,77.29.55ZM45.43,70.92h0a9.37,9.37,0,0,0-6.72-1.65c-.49.06-.47-.32-.33-.54a6.15,6.15,0,0,0-1-7.93C35,58.92,31.24,59.47,31,59.19c-.39-.52.79-1.78.79-1.78A49.22,49.22,0,0,0,45.23,53.5c4-1.74,4.21-7,3.91-8.78,0-.1,0-.2,0-.29a1.74,1.74,0,0,1,1.14-1.92c6.22-3.3,13.77-9.78,17.49-13.12l0,0a33.34,33.34,0,0,1,.92,6.39C69.18,45.17,67,62.43,45.43,70.92Z"/><path class="cls-5" d="M24.05,44.59s3.48-8,5.34-8.77,8,2,7.47,2.52a2,2,0,0,1-.94.27,26,26,0,0,0-6.18,1.12C27.09,40.82,23.92,45.9,24.05,44.59Z"/></g></g></svg>